<svg xmlns="http://www.w3.org/2000/svg" xmlns:xlink="http://www.w3.org/1999/xlink" width="1920" zoomAndPan="magnify" viewBox="0 0 1440 809.999993" height="1080" preserveAspectRatio="xMidYMid meet" version="1.0"><defs><clipPath id="2be2742279"><path d="M 118.578125 66 L 393 66 L 393 550 L 118.578125 550 Z M 118.578125 66 " clip-rule="nonzero"/></clipPath><clipPath id="672f50a1db"><path d="M 1047 66 L 1321.578125 66 L 1321.578125 550 L 1047 550 Z M 1047 66 " clip-rule="nonzero"/></clipPath><clipPath id="e4d402d44a"><path d="M 716 9.566406 L 762 9.566406 L 762 55 L 716 55 Z M 716 9.566406 " clip-rule="nonzero"/></clipPath></defs><rect x="-144" width="1728" fill="#ffffff" y="-80.999999" height="971.999992" fill-opacity="1"/><rect x="-144" width="1728" fill="#ffffff" y="-80.999999" height="971.999992" fill-opacity="1"/><g clip-path="url(#2be2742279)"><path fill="#d3e8f9" d="M 351.410156 549.453125 L 294.789062 549.453125 L 294.789062 368.371094 L 141.796875 368.371094 L 118.621094 323.816406 L 299.921875 66.078125 L 351.410156 82.335938 L 351.410156 311.785156 L 392.933594 311.785156 L 392.933594 368.371094 L 351.410156 368.371094 Z M 196.304688 311.785156 L 294.789062 311.785156 L 294.789062 171.785156 Z M 196.304688 311.785156 " fill-opacity="1" fill-rule="nonzero"/></g><g clip-path="url(#672f50a1db)"><path fill="#d3e8f9" d="M 1279.632812 549.453125 L 1223.011719 549.453125 L 1223.011719 368.371094 L 1070.285156 368.371094 L 1047.105469 323.816406 L 1228.144531 66.078125 L 1279.632812 82.335938 L 1279.632812 311.785156 L 1321.535156 311.785156 L 1321.535156 368.371094 L 1279.632812 368.371094 Z M 1124.753906 311.785156 L 1223.011719 311.785156 L 1223.011719 171.898438 Z M 1124.753906 311.785156 " fill-opacity="1" fill-rule="nonzero"/></g><path fill="#d3e8f9" d="M 731.457031 577.558594 C 696.125 577.558594 661.8125 570.617188 629.5 556.960938 C 598.320312 543.757812 570.3125 524.894531 546.265625 500.863281 C 522.222656 476.832031 503.347656 448.839844 490.136719 417.679688 C 476.472656 385.386719 469.523438 351.09375 469.523438 315.78125 C 469.523438 280.472656 476.472656 246.179688 490.136719 213.886719 C 503.347656 182.726562 522.222656 154.734375 546.265625 130.703125 C 570.3125 106.671875 598.320312 87.808594 629.5 74.605469 C 661.8125 60.945312 696.125 54.003906 731.457031 54.003906 C 766.789062 54.003906 801.105469 60.945312 833.414062 74.605469 C 864.597656 87.808594 892.605469 106.671875 916.648438 130.703125 C 940.695312 154.734375 959.570312 182.726562 972.78125 213.886719 C 986.445312 246.179688 993.390625 280.472656 993.390625 315.78125 C 993.390625 351.09375 986.445312 385.386719 972.78125 417.679688 C 959.570312 448.839844 940.695312 476.832031 916.648438 500.863281 C 892.605469 524.894531 864.597656 543.757812 833.414062 556.960938 C 801.105469 570.65625 766.789062 577.558594 731.457031 577.558594 Z M 731.457031 577.558594 " fill-opacity="1" fill-rule="nonzero"/><path fill="#d3e8f9" d="M 731.457031 110.632812 C 618.253906 110.632812 526.148438 202.679688 526.148438 315.820312 C 526.148438 428.960938 618.253906 521.007812 731.457031 521.007812 C 844.664062 521.007812 936.769531 428.960938 936.769531 315.820312 C 936.769531 202.679688 844.664062 110.632812 731.457031 110.632812 Z M 731.457031 110.632812 " fill-opacity="1" fill-rule="nonzero"/><path fill="#0a1324" d="M 1238.527344 681.078125 C 1238.527344 681.078125 1213.121094 711.257812 1238.527344 735.59375 C 1238.527344 735.59375 1200.703125 740.988281 1200.703125 704.84375 C 1200.703125 668.703125 1238.527344 681.078125 1238.527344 681.078125 Z M 1238.527344 681.078125 " fill-opacity="1" fill-rule="nonzero"/><path fill="#0a1324" d="M 788.421875 456.347656 C 790.535156 440.089844 757.089844 424.734375 757.089844 424.734375 C 728.402344 409.679688 697.410156 418.132812 697.410156 418.132812 C 650.640625 427.714844 655.472656 450.460938 655.472656 450.460938 Z M 788.421875 456.347656 " fill-opacity="1" fill-rule="nonzero"/><path fill="#1f3e76" d="M 1178.320312 687.605469 L 1084.554688 680.777344 L 955.304688 630.300781 C 912.496094 603.214844 863.917969 494.488281 863.917969 494.488281 L 845.871094 498.902344 L 841.910156 585.332031 L 858.40625 604.195312 C 858.40625 604.195312 871.65625 630.753906 909.589844 661.421875 L 1081.082031 735.441406 L 1180.621094 735.59375 " fill-opacity="1" fill-rule="nonzero"/><path fill="#0a1324" d="M 1006.753906 650.40625 L 955.265625 630.300781 C 950.359375 627.167969 945.339844 622.980469 940.355469 618 C 933.675781 655.953125 898.683594 652.144531 898.683594 652.144531 C 902.078125 655.160156 905.703125 658.292969 909.589844 661.421875 L 991.238281 696.660156 Z M 1006.753906 650.40625 " fill-opacity="1" fill-rule="nonzero"/><path fill="#87b4de" d="M 855.726562 660.667969 L 863.953125 494.488281 C 863.953125 494.488281 853.574219 469.777344 788.421875 456.347656 C 645.128906 426.808594 566.726562 478.871094 566.726562 478.871094 L 562.761719 615.398438 C 562.761719 615.398438 562.953125 670.101562 563.214844 714.351562 C 563.480469 758.605469 641.503906 751.664062 641.503906 751.664062 L 817.902344 754.378906 L 855.6875 751.664062 L 855.6875 660.667969 Z M 855.726562 660.667969 " fill-opacity="1" fill-rule="nonzero"/><path fill="#1f3e76" d="M 656.566406 479.210938 C 656.566406 479.210938 771.246094 452.5 845.871094 498.941406 L 841.910156 585.367188 L 664.910156 581.066406 Z M 656.566406 479.210938 " fill-opacity="1" fill-rule="nonzero"/><path fill="#ffffff" d="M 775.320312 533.988281 L 775.320312 518.898438 L 741.347656 518.898438 L 741.347656 500.035156 L 775.320312 500.035156 L 775.320312 484.945312 L 733.914062 484.945312 L 726.25 492.5625 L 726.25 560.546875 L 733.914062 567.941406 L 775.320312 567.941406 L 775.320312 552.847656 L 741.347656 552.847656 L 741.347656 533.988281 Z M 775.320312 533.988281 " fill-opacity="1" fill-rule="nonzero"/><path fill="#87b4de" d="M 609.304688 186.648438 L 583.714844 302.164062 C 582.164062 309.105469 583.148438 316.347656 586.46875 322.648438 L 625.613281 396.929688 C 630.257812 405.71875 638.976562 411.679688 648.867188 412.773438 L 870.03125 437.296875 C 884.148438 438.84375 897.4375 430.316406 901.851562 416.847656 L 943.113281 291.261719 C 946.507812 280.886719 944.015625 269.492188 936.582031 261.496094 L 869.011719 188.875 C 863.878906 183.367188 856.855469 179.972656 849.34375 179.40625 L 640.9375 163.257812 C 626.027344 162.089844 612.550781 172.085938 609.304688 186.648438 Z M 609.304688 186.648438 " fill-opacity="1" fill-rule="nonzero"/><path fill="#1f3e76" d="M 943.113281 291.1875 L 901.851562 416.8125 C 897.4375 430.28125 884.148438 438.84375 870.03125 437.257812 L 648.867188 412.738281 C 644.5625 412.246094 640.523438 410.886719 636.898438 408.738281 L 671.324219 265.191406 C 674.949219 250.066406 689.519531 240.257812 704.882812 242.519531 L 944.320312 277.867188 C 944.921875 282.320312 944.546875 286.847656 943.113281 291.1875 Z M 943.113281 291.1875 " fill-opacity="1" fill-rule="nonzero"/><path stroke-linecap="round" transform="matrix(0.37748, 0, 0, 0.377255, -32.862517, -152.994392)" fill="none" stroke-linejoin="round" d="M 1859.400166 997.600922 L 1740.395445 860.902077 " stroke="#0a1324" stroke-width="10" stroke-opacity="1" stroke-miterlimit="10"/><path fill="#ffffff" d="M 709.527344 342.832031 L 770 353.433594 C 770 353.433594 757.203125 382.140625 730.289062 376.40625 C 703.375 370.671875 709.527344 342.832031 709.527344 342.832031 Z M 709.527344 342.832031 " fill-opacity="1" fill-rule="nonzero"/><path fill="#ffffff" d="M 818.164062 359.996094 L 879.429688 369.84375 C 879.429688 369.84375 872.824219 394.476562 839.265625 390.515625 C 805.746094 386.554688 818.164062 359.996094 818.164062 359.996094 Z M 818.164062 359.996094 " fill-opacity="1" fill-rule="nonzero"/><path fill="#1f3e76" d="M 956.398438 761.507812 L 855.574219 751.699219 C 855.574219 751.699219 833.414062 740.875 833.414062 706.769531 C 833.414062 672.664062 855.574219 660.707031 855.574219 660.707031 L 947.1875 661.046875 " fill-opacity="1" fill-rule="nonzero"/><path fill="#3279af" d="M 1034.273438 558.734375 C 989.957031 548.964844 943.488281 617.699219 943.488281 701.375 C 943.488281 785.050781 985.277344 790.03125 1040.765625 790.03125 " fill-opacity="1" fill-rule="nonzero"/><path fill="#0a1324" d="M 1034.273438 558.734375 C 1084.742188 563.1875 1113.167969 779.996094 1040.804688 790.03125 C 968.441406 800.066406 974.066406 553.414062 1034.273438 558.734375 Z M 1034.273438 558.734375 " fill-opacity="1" fill-rule="nonzero"/><path stroke-linecap="round" transform="matrix(0.37748, 0, 0, 0.377255, -32.862517, -152.994392)" fill="none" stroke-linejoin="round" d="M 2383.70392 2157.097465 C 2383.70392 2157.097465 2323.49788 2296.094987 2420.502249 2405.302889 " stroke="#0a1324" stroke-width="10" stroke-opacity="1" stroke-miterlimit="10"/><path stroke-linecap="round" transform="matrix(0.37748, 0, 0, 0.377255, -32.862517, -152.994392)" fill="none" stroke-linejoin="round" d="M 2471.19826 2157.69802 C 2471.19826 2157.69802 2443.402897 2325.097674 2547.19571 2418.701488 " stroke="#0a1324" stroke-width="10" stroke-opacity="1" stroke-miterlimit="10"/><path fill="#1f3e76" d="M 303.058594 667.421875 C 303.058594 667.421875 391.613281 676.324219 449.292969 640.484375 C 509.5 603.0625 566.726562 478.871094 566.726562 478.871094 C 566.726562 478.871094 588.621094 474.984375 601.757812 508.371094 C 614.894531 541.71875 597.339844 566.996094 597.339844 566.996094 C 597.339844 566.996094 533.054688 669.269531 470.734375 705.109375 C 408.410156 740.949219 306.304688 722.878906 306.304688 722.878906 " fill-opacity="1" fill-rule="nonzero"/><path stroke-linecap="round" transform="matrix(0.37748, 0, 0, 0.377255, -32.862517, -152.994392)" fill="none" stroke-linejoin="round" d="M 1547.100734 1756.703007 C 1547.100734 1756.703007 1596.296251 1779.803683 1611.197712 1993.404688 " stroke="#0a1324" stroke-width="10" stroke-opacity="1" stroke-miterlimit="10"/><path stroke-linecap="round" transform="matrix(0.37748, 0, 0, 0.377255, -32.862517, -152.994392)" fill="none" stroke-linejoin="round" d="M 1468.195431 1890.802896 C 1468.195431 1890.802896 1525.700581 1954.896658 1505.304207 2125.495823 " stroke="#0a1324" stroke-width="10" stroke-opacity="1" stroke-miterlimit="10"/><path stroke-linecap="round" transform="matrix(0.37748, 0, 0, 0.377255, -32.862517, -152.994392)" fill="none" stroke-linejoin="round" d="M 1356.103332 2036.799996 C 1356.103332 2036.799996 1402.401342 2150.605253 1350.898169 2264.400156 " stroke="#0a1324" stroke-width="10" stroke-opacity="1" stroke-miterlimit="10"/><path stroke-linecap="round" transform="matrix(0.37748, 0, 0, 0.377255, -32.862517, -152.994392)" fill="none" stroke-linejoin="round" d="M 1207.502655 2137.1963 C 1207.502655 2137.1963 1217.902633 2268.697234 1131.101624 2330.595862 " stroke="#0a1324" stroke-width="10" stroke-opacity="1" stroke-miterlimit="10"/><path stroke-linecap="round" transform="matrix(0.37748, 0, 0, 0.377255, -32.862517, -152.994392)" fill="none" stroke-linejoin="round" d="M 1029.202539 2174.399674 C 1029.202539 2174.399674 1027.194981 2283.80431 967.102771 2327.396351 " stroke="#0a1324" stroke-width="10" stroke-opacity="1" stroke-miterlimit="10"/><path fill="#0a1324" d="M 1264.382812 735.441406 L 1298.132812 731.667969 L 1298.132812 752.078125 L 1263.742188 767.660156 " fill-opacity="1" fill-rule="nonzero"/><path fill="#0a1324" d="M 1263.742188 648.824219 L 1298.132812 661.5 L 1298.132812 680.738281 L 1264.382812 680.777344 " fill-opacity="1" fill-rule="nonzero"/><path fill="#3279af" d="M 1206.707031 708.203125 C 1207.121094 742.683594 1264.421875 735.441406 1264.421875 735.441406 L 1263.78125 767.660156 C 1220.519531 766.226562 1175.035156 755.773438 1174.355469 711.070312 C 1173.675781 666.367188 1212.554688 647.3125 1263.855469 648.824219 L 1264.574219 680.777344 C 1264.535156 680.777344 1206.289062 673.722656 1206.707031 708.203125 Z M 1206.707031 708.203125 " fill-opacity="1" fill-rule="nonzero"/><path stroke-linecap="round" transform="matrix(0.37748, 0, 0, 0.377255, -32.862517, -152.994392)" fill="none" stroke-linejoin="round" d="M 2438.301216 1841.101756 C 2438.301216 1841.101756 2458.304357 2001.698566 2406.397603 2071.300871 " stroke="#0a1324" stroke-width="10" stroke-opacity="1" stroke-miterlimit="10"/><path stroke-linecap="round" transform="matrix(0.37748, 0, 0, 0.377255, -32.862517, -152.994392)" fill="none" stroke-linejoin="round" d="M 2534.798522 1993.404688 C 2534.798522 1993.404688 2570.800037 2096.503491 2534.798522 2157.69802 " stroke="#0a1324" stroke-width="10" stroke-opacity="1" stroke-miterlimit="10"/><path stroke-linecap="round" transform="matrix(0.37748, 0, 0, 0.377255, -32.862517, -152.994392)" fill="none" stroke-linejoin="round" d="M 3132.698935 2222.70297 C 3132.698935 2222.70297 3110.998683 2312.900185 3173.201933 2355.405015 " stroke="#0a1324" stroke-width="10" stroke-opacity="1" stroke-miterlimit="10"/><path stroke-linecap="round" transform="matrix(0.37748, 0, 0, 0.377255, -32.862517, -152.994392)" fill="none" stroke-linejoin="round" d="M 3011.003673 2213.798182 C 3011.003673 2213.798182 2989.500037 2309.503941 3048.898915 2355.001193 " stroke="#0a1324" stroke-width="10" stroke-opacity="1" stroke-miterlimit="10"/><path fill="#3279af" d="M 739.460938 205.132812 C 739.460938 205.132812 742.292969 156.957031 801.066406 163.144531 C 859.878906 169.371094 856.628906 218.753906 856.628906 218.753906 C 856.628906 218.753906 850.476562 230.675781 811.296875 227.277344 C 772.113281 223.882812 739.460938 205.132812 739.460938 205.132812 Z M 739.460938 205.132812 " fill-opacity="1" fill-rule="nonzero"/><path stroke-linecap="round" transform="matrix(0.37748, 0, 0, 0.377255, -32.862517, -152.994392)" fill="none" stroke-linejoin="round" d="M 2173.200092 880.502964 L 2045.999568 497.296817 " stroke="#0a1324" stroke-width="10" stroke-opacity="1" stroke-miterlimit="10"/><g clip-path="url(#e4d402d44a)"><path fill="#3279af" d="M 761.996094 32.085938 C 761.996094 32.824219 761.960938 33.558594 761.886719 34.292969 C 761.816406 35.027344 761.707031 35.757812 761.5625 36.480469 C 761.417969 37.203125 761.242188 37.917969 761.027344 38.625 C 760.8125 39.332031 760.5625 40.023438 760.28125 40.707031 C 760 41.386719 759.683594 42.054688 759.335938 42.703125 C 758.988281 43.355469 758.609375 43.984375 758.199219 44.597656 C 757.789062 45.210938 757.347656 45.804688 756.882812 46.375 C 756.414062 46.945312 755.917969 47.492188 755.394531 48.011719 C 754.875 48.535156 754.328125 49.027344 753.757812 49.496094 C 753.1875 49.964844 752.59375 50.402344 751.980469 50.8125 C 751.367188 51.222656 750.734375 51.601562 750.085938 51.949219 C 749.433594 52.296875 748.765625 52.613281 748.085938 52.894531 C 747.402344 53.175781 746.707031 53.425781 746.003906 53.640625 C 745.296875 53.851562 744.582031 54.03125 743.859375 54.175781 C 743.132812 54.320312 742.40625 54.429688 741.671875 54.5 C 740.933594 54.574219 740.199219 54.609375 739.460938 54.609375 C 738.722656 54.609375 737.988281 54.574219 737.253906 54.5 C 736.519531 54.429688 735.789062 54.320312 735.066406 54.175781 C 734.339844 54.03125 733.625 53.851562 732.917969 53.640625 C 732.214844 53.425781 731.519531 53.175781 730.835938 52.894531 C 730.15625 52.613281 729.488281 52.296875 728.839844 51.949219 C 728.1875 51.601562 727.554688 51.222656 726.941406 50.8125 C 726.328125 50.402344 725.734375 49.964844 725.164062 49.496094 C 724.59375 49.027344 724.046875 48.535156 723.527344 48.011719 C 723.003906 47.492188 722.507812 46.945312 722.039062 46.375 C 721.574219 45.804688 721.132812 45.210938 720.722656 44.597656 C 720.3125 43.984375 719.933594 43.355469 719.585938 42.703125 C 719.238281 42.054688 718.921875 41.386719 718.640625 40.707031 C 718.359375 40.023438 718.109375 39.332031 717.894531 38.625 C 717.683594 37.917969 717.503906 37.203125 717.359375 36.480469 C 717.214844 35.757812 717.105469 35.027344 717.035156 34.292969 C 716.960938 33.558594 716.925781 32.824219 716.925781 32.085938 C 716.925781 31.347656 716.960938 30.613281 717.035156 29.878906 C 717.105469 29.144531 717.214844 28.417969 717.359375 27.691406 C 717.503906 26.96875 717.683594 26.253906 717.894531 25.550781 C 718.109375 24.84375 718.359375 24.148438 718.640625 23.46875 C 718.921875 22.785156 719.238281 22.121094 719.585938 21.46875 C 719.933594 20.820312 720.3125 20.1875 720.722656 19.574219 C 721.132812 18.960938 721.574219 18.371094 722.039062 17.800781 C 722.507812 17.230469 723.003906 16.683594 723.527344 16.160156 C 724.046875 15.640625 724.59375 15.144531 725.164062 14.675781 C 725.734375 14.210938 726.328125 13.769531 726.941406 13.359375 C 727.554688 12.949219 728.1875 12.570312 728.839844 12.222656 C 729.488281 11.875 730.15625 11.5625 730.835938 11.277344 C 731.519531 10.996094 732.214844 10.75 732.917969 10.535156 C 733.625 10.320312 734.339844 10.140625 735.066406 9.996094 C 735.789062 9.855469 736.519531 9.746094 737.253906 9.671875 C 737.988281 9.601562 738.722656 9.566406 739.460938 9.566406 C 740.199219 9.566406 740.933594 9.601562 741.671875 9.671875 C 742.40625 9.746094 743.132812 9.855469 743.859375 9.996094 C 744.582031 10.140625 745.296875 10.320312 746.003906 10.535156 C 746.707031 10.75 747.402344 10.996094 748.085938 11.277344 C 748.765625 11.5625 749.433594 11.875 750.085938 12.222656 C 750.734375 12.570312 751.367188 12.949219 751.980469 13.359375 C 752.59375 13.769531 753.1875 14.210938 753.757812 14.675781 C 754.328125 15.144531 754.875 15.640625 755.394531 16.160156 C 755.917969 16.683594 756.414062 17.230469 756.882812 17.800781 C 757.347656 18.371094 757.789062 18.960938 758.199219 19.574219 C 758.609375 20.1875 758.988281 20.820312 759.335938 21.46875 C 759.683594 22.121094 760 22.785156 760.28125 23.46875 C 760.5625 24.148438 760.8125 24.84375 761.027344 25.550781 C 761.242188 26.253906 761.417969 26.96875 761.5625 27.691406 C 761.707031 28.417969 761.816406 29.144531 761.886719 29.878906 C 761.960938 30.613281 761.996094 31.347656 761.996094 32.085938 Z M 761.996094 32.085938 " fill-opacity="1" fill-rule="nonzero"/></g><path stroke-linecap="round" transform="matrix(0.37748, 0, 0, 0.377255, -32.862517, -152.994392)" fill="none" stroke-linejoin="round" d="M 2248.504209 895.70323 L 2385.804612 701.599568 L 2577.102113 880.502964 " stroke="#0a1324" stroke-width="10" stroke-opacity="1" stroke-miterlimit="10"/><path fill="#3279af" d="M 966.96875 184.875 C 966.96875 185.613281 966.933594 186.347656 966.859375 187.082031 C 966.789062 187.816406 966.679688 188.546875 966.535156 189.269531 C 966.390625 189.992188 966.210938 190.707031 965.996094 191.414062 C 965.785156 192.117188 965.535156 192.8125 965.253906 193.492188 C 964.96875 194.175781 964.65625 194.839844 964.308594 195.492188 C 963.960938 196.140625 963.582031 196.773438 963.171875 197.386719 C 962.761719 198 962.320312 198.59375 961.851562 199.164062 C 961.382812 199.734375 960.890625 200.277344 960.367188 200.800781 C 959.84375 201.320312 959.300781 201.816406 958.730469 202.285156 C 958.160156 202.753906 957.566406 203.191406 956.953125 203.601562 C 956.339844 204.011719 955.707031 204.390625 955.054688 204.738281 C 954.40625 205.085938 953.738281 205.402344 953.054688 205.683594 C 952.375 205.964844 951.679688 206.214844 950.972656 206.425781 C 950.269531 206.640625 949.554688 206.820312 948.828125 206.964844 C 948.105469 207.109375 947.375 207.214844 946.640625 207.289062 C 945.90625 207.359375 945.171875 207.398438 944.433594 207.398438 C 943.695312 207.398438 942.957031 207.359375 942.222656 207.289062 C 941.488281 207.214844 940.761719 207.109375 940.035156 206.964844 C 939.3125 206.820312 938.597656 206.640625 937.890625 206.425781 C 937.183594 206.214844 936.492188 205.964844 935.808594 205.683594 C 935.125 205.402344 934.460938 205.085938 933.808594 204.738281 C 933.160156 204.390625 932.527344 204.011719 931.914062 203.601562 C 931.300781 203.191406 930.707031 202.753906 930.136719 202.285156 C 929.566406 201.816406 929.019531 201.320312 928.496094 200.800781 C 927.976562 200.277344 927.480469 199.734375 927.011719 199.164062 C 926.542969 198.59375 926.105469 198 925.695312 197.386719 C 925.285156 196.773438 924.90625 196.140625 924.558594 195.492188 C 924.210938 194.839844 923.894531 194.175781 923.613281 193.492188 C 923.328125 192.8125 923.082031 192.117188 922.867188 191.414062 C 922.652344 190.707031 922.472656 189.992188 922.328125 189.269531 C 922.1875 188.546875 922.078125 187.816406 922.003906 187.082031 C 921.933594 186.347656 921.898438 185.613281 921.898438 184.875 C 921.898438 184.136719 921.933594 183.402344 922.003906 182.667969 C 922.078125 181.933594 922.1875 181.203125 922.328125 180.480469 C 922.472656 179.757812 922.652344 179.042969 922.867188 178.335938 C 923.082031 177.632812 923.328125 176.9375 923.613281 176.257812 C 923.894531 175.574219 924.210938 174.910156 924.558594 174.257812 C 924.90625 173.609375 925.285156 172.976562 925.695312 172.363281 C 926.105469 171.75 926.542969 171.15625 927.011719 170.585938 C 927.480469 170.015625 927.976562 169.472656 928.496094 168.949219 C 929.019531 168.429688 929.566406 167.933594 930.136719 167.464844 C 930.707031 166.996094 931.296875 166.558594 931.914062 166.148438 C 932.527344 165.738281 933.160156 165.359375 933.808594 165.011719 C 934.460938 164.664062 935.125 164.351562 935.808594 164.066406 C 936.492188 163.785156 937.183594 163.535156 937.890625 163.324219 C 938.597656 163.109375 939.3125 162.929688 940.035156 162.785156 C 940.761719 162.640625 941.488281 162.535156 942.222656 162.460938 C 942.957031 162.390625 943.695312 162.351562 944.433594 162.351562 C 945.171875 162.351562 945.90625 162.390625 946.640625 162.460938 C 947.375 162.535156 948.105469 162.640625 948.828125 162.785156 C 949.554688 162.929688 950.269531 163.109375 950.972656 163.324219 C 951.679688 163.535156 952.375 163.785156 953.054688 164.066406 C 953.738281 164.351562 954.40625 164.664062 955.054688 165.011719 C 955.707031 165.359375 956.339844 165.738281 956.953125 166.148438 C 957.566406 166.558594 958.160156 166.996094 958.730469 167.464844 C 959.300781 167.933594 959.84375 168.429688 960.367188 168.949219 C 960.890625 169.472656 961.382812 170.015625 961.851562 170.585938 C 962.320312 171.15625 962.761719 171.75 963.171875 172.363281 C 963.582031 172.976562 963.960938 173.609375 964.308594 174.257812 C 964.65625 174.910156 964.96875 175.574219 965.253906 176.257812 C 965.535156 176.9375 965.785156 177.632812 965.996094 178.335938 C 966.210938 179.042969 966.390625 179.757812 966.535156 180.480469 C 966.679688 181.203125 966.789062 181.933594 966.859375 182.667969 C 966.933594 183.402344 966.96875 184.136719 966.96875 184.875 Z M 966.96875 184.875 " fill-opacity="1" fill-rule="nonzero"/><path fill="#0a1324" d="M 310.003906 725.40625 C 298.074219 762.300781 224.464844 765.660156 224.464844 765.660156 L 188.378906 731.179688 L 196.609375 696.921875 L 149.761719 708.503906 L 120.960938 687.605469 L 127.039062 633.429688 C 127.039062 633.429688 225.070312 615.472656 278.445312 638.449219 C 331.894531 661.460938 321.929688 688.546875 310.003906 725.40625 Z M 310.003906 725.40625 " fill-opacity="1" fill-rule="nonzero"/><path fill="#3279af" d="M 245.453125 699.828125 L 202.421875 672.855469 C 202.421875 672.855469 291.316406 672.476562 260.324219 653.5 C 229.335938 634.523438 157.5 659.160156 157.5 659.160156 L 127.039062 633.429688 C 127.039062 633.429688 225.070312 615.472656 278.445312 638.449219 C 293.65625 645.011719 303.734375 651.878906 310.078125 659.234375 C 329.933594 688.851562 245.453125 699.828125 245.453125 699.828125 Z M 245.453125 699.828125 " fill-opacity="1" fill-rule="nonzero"/><path fill="#87b4de" d="M 245.453125 699.828125 L 224.464844 765.660156 L 188.417969 731.179688 L 202.421875 672.855469 Z M 245.453125 699.828125 " fill-opacity="1" fill-rule="nonzero"/><path fill="#87b4de" d="M 157.539062 659.160156 L 149.761719 708.503906 L 121 687.605469 L 127.074219 633.429688 Z M 157.539062 659.160156 " fill-opacity="1" fill-rule="nonzero"/><path fill="#1f3e76" d="M 742.367188 761.507812 L 641.542969 751.699219 C 641.542969 751.699219 619.386719 740.875 619.386719 706.769531 C 619.386719 672.664062 641.542969 660.707031 641.542969 660.707031 L 733.15625 661.046875 " fill-opacity="1" fill-rule="nonzero"/><path fill="#3279af" d="M 820.242188 558.734375 C 775.925781 548.964844 729.457031 617.699219 729.457031 701.375 C 729.457031 785.050781 771.246094 790.03125 826.734375 790.03125 " fill-opacity="1" fill-rule="nonzero"/><path fill="#0a1324" d="M 820.242188 558.734375 C 870.710938 563.1875 899.136719 779.996094 826.773438 790.03125 C 754.410156 800.066406 760.035156 553.414062 820.242188 558.734375 Z M 820.242188 558.734375 " fill-opacity="1" fill-rule="nonzero"/><path stroke-linecap="round" transform="matrix(0.37748, 0, 0, 0.377255, -32.862517, -152.994392)" fill="none" stroke-linejoin="round" d="M 1816.703342 2157.097465 C 1816.703342 2157.097465 1756.497301 2296.094987 1853.501671 2405.302889 " stroke="#0a1324" stroke-width="10" stroke-opacity="1" stroke-miterlimit="10"/><path stroke-linecap="round" transform="matrix(0.37748, 0, 0, 0.377255, -32.862517, -152.994392)" fill="none" stroke-linejoin="round" d="M 1904.197682 2157.69802 C 1904.197682 2157.69802 1876.402319 2325.097674 1980.195131 2418.701488 " stroke="#0a1324" stroke-width="10" stroke-opacity="1" stroke-miterlimit="10"/></svg>